<svg xmlns="http://www.w3.org/2000/svg" viewBox="0 0 800 500">
  <!-- Background -->
  <rect width="800" height="500" fill="#ffffff" />
  
  <!-- Title -->
  <text x="400" y="30" font-family="Arial, sans-serif" font-size="22" font-weight="bold" text-anchor="middle">Original Demucs vs Hybrid Demucs</text>
  
  <!-- Original Demucs - Left side -->
  <rect x="50" y="60" width="300" height="420" rx="10" ry="10" fill="#e6f7ff" stroke="#1890ff" stroke-width="2" />
  <text x="200" y="85" font-family="Arial, sans-serif" font-size="18" font-weight="bold" text-anchor="middle">Original Demucs</text>
  
  <!-- Original Demucs Architecture -->
  <rect x="100" y="110" width="200" height="40" rx="5" ry="5" fill="#ffffff" stroke="#1890ff" stroke-width="1.5" />
  <text x="200" y="135" font-family="Arial, sans-serif" font-size="14" text-anchor="middle">Audio Input (Time Domain)</text>
  
  <!-- Encoder -->
  <rect x="100" y="170" width="200" height="60" rx="5" ry="5" fill="#ffffff" stroke="#1890ff" stroke-width="1.5" />
  <text x="200" y="195" font-family="Arial, sans-serif" font-size="14" text-anchor="middle">Convolutional Encoder</text>
  <text x="200" y="215" font-family="Arial, sans-serif" font-size="12" text-anchor="middle">(Time Domain Only)</text>
  
  <!-- Bottleneck -->
  <rect x="100" y="250" width="200" height="60" rx="5" ry="5" fill="#ffffff" stroke="#1890ff" stroke-width="1.5" />
  <text x="200" y="275" font-family="Arial, sans-serif" font-size="14" text-anchor="middle">Bottleneck with BiLSTM</text>
  <text x="200" y="295" font-family="Arial, sans-serif" font-size="12" text-anchor="middle">(Temporal Feature Processing)</text>
  
  <!-- Decoder -->
  <rect x="100" y="330" width="200" height="60" rx="5" ry="5" fill="#ffffff" stroke="#1890ff" stroke-width="1.5" />
  <text x="200" y="355" font-family="Arial, sans-serif" font-size="14" text-anchor="middle">Convolutional Decoder</text>
  <text x="200" y="375" font-family="Arial, sans-serif" font-size="12" text-anchor="middle">(With Skip Connections)</text>
  
  <!-- Output -->
  <rect x="100" y="410" width="200" height="40" rx="5" ry="5" fill="#ffffff" stroke="#1890ff" stroke-width="1.5" />
  <text x="200" y="435" font-family="Arial, sans-serif" font-size="14" text-anchor="middle">Separated Sources (Time Domain)</text>
  
  <!-- Skip connections for Original Demucs -->
  <path d="M 120 210 L 80 210 L 80 360 L 120 360" fill="none" stroke="#1890ff" stroke-width="1.5" stroke-dasharray="5,3" />
  <path d="M 280 210 L 320 210 L 320 360 L 280 360" fill="none" stroke="#1890ff" stroke-width="1.5" stroke-dasharray="5,3" />
  
  <!-- Hybrid Demucs - Right side -->
  <rect x="450" y="60" width="300" height="420" rx="10" ry="10" fill="#f6ffed" stroke="#52c41a" stroke-width="2" />
  <text x="600" y="85" font-family="Arial, sans-serif" font-size="18" font-weight="bold" text-anchor="middle">Hybrid Demucs</text>
  
  <!-- Hybrid Demucs Architecture -->
  <rect x="500" y="110" width="200" height="40" rx="5" ry="5" fill="#ffffff" stroke="#52c41a" stroke-width="1.5" />
  <text x="600" y="135" font-family="Arial, sans-serif" font-size="14" text-anchor="middle">Audio Input</text>
  
  <!-- Split into two branches -->
  <path d="M 600 150 L 600 170" fill="none" stroke="#52c41a" stroke-width="1.5" />
  <path d="M 600 170 L 540 185 M 600 170 L 660 185" fill="none" stroke="#52c41a" stroke-width="1.5" />
  
  <!-- Time branch -->
  <rect x="480" y="190" width="120" height="40" rx="5" ry="5" fill="#ffffff" stroke="#1890ff" stroke-width="1.5" />
  <text x="540" y="210" font-family="Arial, sans-serif" font-size="12" text-anchor="middle">Time Domain U-Net</text>
  <rect x="480" y="240" width="120" height="30" rx="5" ry="5" fill="#ffffff" stroke="#1890ff" stroke-width="1.5" />
  <text x="540" y="260" font-family="Arial, sans-serif" font-size="10" text-anchor="middle">Preserves Transients</text>
  
  <!-- Frequency branch -->
  <rect x="610" y="190" width="120" height="40" rx="5" ry="5" fill="#ffffff" stroke="#722ed1" stroke-width="1.5" />
  <text x="670" y="210" font-family="Arial, sans-serif" font-size="12" text-anchor="middle">STFT Spectrogram</text>
  <text x="670" y="225" font-family="Arial, sans-serif" font-size="12" text-anchor="middle">U-Net</text>
  <rect x="610" y="240" width="120" height="30" rx="5" ry="5" fill="#ffffff" stroke="#722ed1" stroke-width="1.5" />
  <text x="670" y="260" font-family="Arial, sans-serif" font-size="10" text-anchor="middle">Captures Harmonics</text>
  
  <!-- Bottlenecks -->
  <rect x="480" y="280" width="120" height="40" rx="5" ry="5" fill="#ffffff" stroke="#1890ff" stroke-width="1.5" />
  <text x="540" y="300" font-family="Arial, sans-serif" font-size="12" text-anchor="middle">Time Bottleneck</text>
  <rect x="610" y="280" width="120" height="40" rx="5" ry="5" fill="#ffffff" stroke="#722ed1" stroke-width="1.5" />
  <text x="670" y="300" font-family="Arial, sans-serif" font-size="12" text-anchor="middle">Freq. Bottleneck</text>
  
  <!-- Decoders -->
  <rect x="480" y="330" width="120" height="40" rx="5" ry="5" fill="#ffffff" stroke="#1890ff" stroke-width="1.5" />
  <text x="540" y="350" font-family="Arial, sans-serif" font-size="12" text-anchor="middle">Time Decoder</text>
  <rect x="610" y="330" width="120" height="40" rx="5" ry="5" fill="#ffffff" stroke="#722ed1" stroke-width="1.5" />
  <text x="670" y="350" font-family="Arial, sans-serif" font-size="12" text-anchor="middle">Freq. Decoder</text>
  
  <!-- Outputs -->
  <rect x="480" y="380" width="120" height="30" rx="5" ry="5" fill="#ffffff" stroke="#1890ff" stroke-width="1.5" />
  <text x="540" y="400" font-family="Arial, sans-serif" font-size="10" text-anchor="middle">Time Domain Output</text>
  <rect x="610" y="380" width="120" height="30" rx="5" ry="5" fill="#ffffff" stroke="#722ed1" stroke-width="1.5" />
  <text x="670" y="400" font-family="Arial, sans-serif" font-size="10" text-anchor="middle">Frequency Output</text>
  
  <!-- Fusion -->
  <path d="M 540 410 L 540 420 L 600 435 M 670 410 L 670 420 L 600 435" fill="none" stroke="#52c41a" stroke-width="1.5" />
  <rect x="530" y="440" width="140" height="30" rx="5" ry="5" fill="#ffffff" stroke="#52c41a" stroke-width="1.5" />
  <text x="600" y="460" font-family="Arial, sans-serif" font-size="12" text-anchor="middle">Fusion → Final Output</text>
  
  <!-- Skip connections for Hybrid Demucs -->
  <path d="M 490 210 L 470 210 L 470 350 L 490 350" fill="none" stroke="#1890ff" stroke-width="1.5" stroke-dasharray="5,3" />
  <path d="M 595 210 L 595 350" fill="none" stroke="#1890ff" stroke-width="1.5" stroke-dasharray="5,3" />
  <path d="M 620 210 L 620 350" fill="none" stroke="#722ed1" stroke-width="1.5" stroke-dasharray="5,3" />
  <path d="M 720 210 L 740 210 L 740 350 L 720 350" fill="none" stroke="#722ed1" stroke-width="1.5" stroke-dasharray="5,3" />
  
  <!-- Key differences - Bottom section -->
  <!-- <line x1="50" y1="490" x2="750" y2="490" stroke="#666666" stroke-width="1" /> -->
  <!-- <text x="400" y="495" font-family="Arial, sans-serif" font-size="12" text-anchor="middle" fill="#666666">Hybrid Demucs combines complementary strengths of both domains for improved separation quality</text> -->
</svg>